mtllib hangar_door.mtl

#
# object Box014
#

v  -1.0000 -1.0000 0.6250
v  -1.0000 -1.0000 0.3750
v  2.0000 -1.0000 0.3750
v  2.0000 -1.0000 0.6250
v  -1.0000 -0.9375 0.6250
v  2.0000 -0.9375 0.6250
v  2.0000 -0.9375 0.3750
v  -1.0000 -0.9375 0.3750
# 8 vertices

vn 0.0000 -1.0000 -0.0000
vn 0.0000 1.0000 -0.0000
vn 0.0000 0.0000 1.0000
vn 1.0000 0.0000 -0.0000
vn 0.0000 0.0000 -1.0000
vn -1.0000 0.0000 -0.0000
# 6 vertex normals

vt 0.0000 0.0000 0.0000
vt 0.0000 0.0625 0.0000
vt 0.7500 0.0625 0.0000
vt 0.7500 0.0000 0.0000
vt 0.0000 0.0781 0.0000
vt 0.7500 0.0781 0.0000
vt 0.7500 0.0938 0.0000
vt 0.0000 0.0938 0.0000
vt 0.0469 0.1094 0.0000
vt 0.0000 0.1094 0.0000
vt 0.0000 0.1250 0.0000
vt 0.0469 0.1250 0.0000
# 12 texture coords

g Box014
usemtl tex
f 1/1/1 2/2/1 3/3/1 
f 3/3/1 4/4/1 1/1/1 
f 5/1/2 6/4/2 7/3/2 
f 7/3/2 8/2/2 5/1/2 
f 1/5/3 4/6/3 6/7/3 
f 6/7/3 5/8/3 1/5/3 
f 4/9/4 3/10/4 7/11/4 
f 7/11/4 6/12/4 4/9/4 
f 3/6/5 2/5/5 8/8/5 
f 8/8/5 7/7/5 3/6/5 
f 2/10/6 1/9/6 5/12/6 
f 5/12/6 8/11/6 2/10/6 
# 12 faces

#
# object Box011
#

v  1.8351 -0.7500 0.5550
v  1.8351 -0.7500 0.4450
v  2.0000 -0.7500 0.4450
v  2.0000 -0.7500 0.5550
v  2.0000 -1.0000 0.5550
v  1.7500 -1.0000 0.5550
v  1.7500 -1.0000 0.4450
v  2.0000 -1.0000 0.4450
# 8 vertices

vn 0.0000 1.0000 -0.0000
vn -0.0000 0.0000 1.0000
vn -0.9467 0.3221 -0.0000
vn 0.0000 -0.0000 -1.0000
vn 0.0000 0.0000 -1.0000
vn 1.0000 0.0000 0.0000
# 6 vertex normals

vt 0.8438 0.0156 0.0000
vt 0.8438 0.0469 0.0000
vt 0.9063 0.0469 0.0000
vt 0.9063 0.0156 0.0000
vt 0.9063 0.1406 0.0000
vt 0.8281 0.1406 0.0000
vt 0.8438 0.0625 0.0000
vt 0.9063 0.0625 0.0000
vt 0.8125 0.0469 0.0000
vt 0.8125 0.1406 0.0000
vt 0.7656 0.1406 0.0000
vt 0.7656 0.0469 0.0000
vt 0.7656 0.0625 0.0000
vt 0.8125 0.0625 0.0000
# 14 texture coords

g Box011
usemtl tex
f 11/15/7 10/14/7 9/13/7 
f 9/13/7 12/16/7 11/15/7 
f 9/19/8 14/18/8 13/17/8 
f 13/17/8 12/20/8 9/19/8 
f 15/23/9 14/22/9 9/21/9 
f 9/21/9 10/24/9 15/23/9 
f 16/17/10 15/18/10 10/19/10 
f 10/19/10 11/20/11 16/17/10 
f 12/22/12 13/26/12 16/25/12 
f 16/25/12 11/23/12 12/22/12 
# 10 faces

#
# object Box012
#

v  0.8351 -0.7500 0.5550
v  0.8351 -0.7500 0.4450
v  1.1649 -0.7500 0.4450
v  1.1649 -0.7500 0.5550
v  1.2500 -1.0000 0.5550
v  0.7500 -1.0000 0.5550
v  1.2500 -1.0000 0.4450
v  0.7500 -1.0000 0.4450
# 8 vertices

vn 0.0000 1.0000 -0.0000
vn -0.0000 0.0000 1.0000
vn 0.9467 0.3221 0.0000
vn 0.0000 0.0000 -1.0000
vn -0.9467 0.3221 -0.0000
# 5 vertex normals

vt 0.8438 0.0156 0.0000
vt 0.8438 0.0469 0.0000
vt 0.9688 0.0469 0.0000
vt 0.9688 0.0156 0.0000
vt 0.8438 0.0625 0.0000
vt 0.9688 0.0625 0.0000
vt 0.9844 0.1406 0.0000
vt 0.8281 0.1406 0.0000
vt 0.8125 0.0469 0.0000
vt 0.7656 0.0469 0.0000
vt 0.7656 0.1406 0.0000
vt 0.8125 0.1406 0.0000
# 12 texture coords

g Box012
usemtl tex
f 19/29/13 18/28/13 17/27/13 
f 17/27/13 20/30/13 19/29/13 
f 21/33/14 20/32/14 17/31/14 
f 17/31/14 22/34/14 21/33/14 
f 23/37/15 19/36/15 20/35/15 
f 20/35/15 21/38/15 23/37/15 
f 24/34/16 18/31/16 19/32/16 
f 19/32/16 23/33/16 24/34/16 
f 22/38/17 17/35/17 18/36/17 
f 18/36/17 24/37/17 22/38/17 
# 10 faces

#
# object Box013
#

v  -0.1649 -0.7500 0.5550
v  -0.1649 -0.7500 0.4450
v  0.1649 -0.7500 0.4450
v  0.1649 -0.7500 0.5550
v  0.2500 -1.0000 0.5550
v  -0.2500 -1.0000 0.5550
v  0.2500 -1.0000 0.4450
v  -0.2500 -1.0000 0.4450
# 8 vertices

vn 0.0000 1.0000 -0.0000
vn -0.0000 0.0000 1.0000
vn 0.9467 0.3221 0.0000
vn 0.0000 0.0000 -1.0000
vn -0.9467 0.3221 -0.0000
# 5 vertex normals

vt 0.8438 0.0156 0.0000
vt 0.8438 0.0469 0.0000
vt 0.9688 0.0469 0.0000
vt 0.9688 0.0156 0.0000
vt 0.8438 0.0625 0.0000
vt 0.9688 0.0625 0.0000
vt 0.9844 0.1406 0.0000
vt 0.8281 0.1406 0.0000
vt 0.8125 0.0469 0.0000
vt 0.7656 0.0469 0.0000
vt 0.7656 0.1406 0.0000
vt 0.8125 0.1406 0.0000
# 12 texture coords

g Box013
usemtl tex
f 27/41/18 26/40/18 25/39/18 
f 25/39/18 28/42/18 27/41/18 
f 29/45/19 28/44/19 25/43/19 
f 25/43/19 30/46/19 29/45/19 
f 31/49/20 27/48/20 28/47/20 
f 28/47/20 29/50/20 31/49/20 
f 32/46/21 26/43/21 27/44/21 
f 27/44/21 31/45/21 32/46/21 
f 30/50/22 25/47/22 26/48/22 
f 26/48/22 32/49/22 30/50/22 
# 10 faces

#
# object Box016
#

v  -0.8351 -0.7500 0.5550
v  -0.8351 -0.7500 0.4450
v  -1.0000 -0.7500 0.4450
v  -1.0000 -0.7500 0.5550
v  -1.0000 -1.0000 0.5550
v  -0.7500 -1.0000 0.5550
v  -0.7500 -1.0000 0.4450
v  -1.0000 -1.0000 0.4450
# 8 vertices

vn -0.0000 1.0000 0.0000
vn -0.0000 -0.0000 1.0000
vn 0.9467 0.3221 0.0000
vn 0.0000 0.0000 -1.0000
vn -1.0000 0.0000 -0.0000
# 5 vertex normals

vt 0.8438 0.0156 0.0000
vt 0.8438 0.0469 0.0000
vt 0.9063 0.0469 0.0000
vt 0.9063 0.0156 0.0000
vt 0.9063 0.1406 0.0000
vt 0.8281 0.1406 0.0000
vt 0.8438 0.0625 0.0000
vt 0.9063 0.0625 0.0000
vt 0.8125 0.0469 0.0000
vt 0.8125 0.1406 0.0000
vt 0.7656 0.1406 0.0000
vt 0.7656 0.0469 0.0000
vt 0.7656 0.0625 0.0000
vt 0.8125 0.0625 0.0000
# 14 texture coords

g Box016
usemtl tex
f 33/51/23 34/52/23 35/53/23 
f 35/53/23 36/54/23 33/51/23 
f 37/55/24 38/56/24 33/57/24 
f 33/57/24 36/58/24 37/55/24 
f 33/59/25 38/60/25 39/61/25 
f 39/61/25 34/62/25 33/59/25 
f 34/57/26 39/56/26 40/55/26 
f 40/55/26 35/58/26 34/57/26 
f 40/63/27 37/64/27 36/60/27 
f 36/60/27 35/61/27 40/63/27 
# 10 faces

