mtllib hangar_door.mtl

#
# object Door002
#

v  -1.0000 0.0000 0.5625
v  -1.0000 0.0000 0.4375
v  2.0000 0.0000 0.4375
v  2.0000 0.0000 0.5625
v  -1.0000 1.0000 0.5625
v  2.0000 1.0000 0.5625
v  2.0000 1.0000 0.4375
v  -1.0000 1.0000 0.4375
# 8 vertices

vn 0.0000 -1.0000 -0.0000
vn 0.0000 1.0000 -0.0000
vn 0.0000 0.0000 1.0000
vn 1.0000 0.0000 -0.0000
vn 0.0000 0.0000 -1.0000
vn -1.0000 0.0000 -0.0000
# 6 vertex normals

vt 0.0000 0.2031 0.0000
vt 0.0000 0.2344 0.0000
vt 0.7500 0.2344 0.0000
vt 0.7500 0.2031 0.0000
vt 0.0000 0.5000 0.0000
vt 0.7500 0.5000 0.0000
vt 0.7500 0.7500 0.0000
vt 0.0000 0.7500 0.0000
vt 0.7969 0.5000 0.0000
vt 0.7656 0.5000 0.0000
vt 0.7656 0.7500 0.0000
vt 0.7969 0.7500 0.0000
# 12 texture coords

g Door002
usemtl tex
f 1/1/1 2/2/1 3/3/1 
f 3/3/1 4/4/1 1/1/1 
f 5/1/2 6/4/2 7/3/2 
f 7/3/2 8/2/2 5/1/2 
f 1/5/3 4/6/3 6/7/3 
f 6/7/3 5/8/3 1/5/3 
f 4/9/4 3/10/4 7/11/4 
f 7/11/4 6/12/4 4/9/4 
f 3/6/5 2/5/5 8/8/5 
f 8/8/5 7/7/5 3/6/5 
f 2/10/6 1/9/6 5/12/6 
f 5/12/6 8/11/6 2/10/6 
# 12 faces

