mtllib hangar_door.mtl

#
# object Box017
#

v  0.8351 2.2500 0.5550
v  0.8351 2.2500 0.4450
v  1.1649 2.2500 0.4450
v  1.1649 2.2500 0.5550
v  1.2500 2.0000 0.5550
v  0.7500 2.0000 0.5550
v  1.2500 2.0000 0.4450
v  0.7500 2.0000 0.4450
# 8 vertices

vn 0.0000 1.0000 -0.0000
vn -0.0000 0.0000 1.0000
vn 0.9467 0.3221 0.0000
vn 0.0000 0.0000 -1.0000
vn -0.9467 0.3221 -0.0000
# 5 vertex normals

vt 0.8438 0.0156 0.0000
vt 0.8438 0.0469 0.0000
vt 0.9688 0.0469 0.0000
vt 0.9688 0.0156 0.0000
vt 0.8438 0.0625 0.0000
vt 0.9688 0.0625 0.0000
vt 0.9844 0.1406 0.0000
vt 0.8281 0.1406 0.0000
vt 0.8125 0.0469 0.0000
vt 0.7656 0.0469 0.0000
vt 0.7656 0.1406 0.0000
vt 0.8125 0.1406 0.0000
# 12 texture coords

g Box017
usemtl tex
f 3/3/1 2/2/1 1/1/1 
f 1/1/1 4/4/1 3/3/1 
f 5/7/2 4/6/2 1/5/2 
f 1/5/2 6/8/2 5/7/2 
f 7/11/3 3/10/3 4/9/3 
f 4/9/3 5/12/3 7/11/3 
f 8/8/4 2/5/4 3/6/4 
f 3/6/4 7/7/4 8/8/4 
f 6/12/5 1/9/5 2/10/5 
f 2/10/5 8/11/5 6/12/5 
# 10 faces

#
# object Box018
#

v  1.8351 2.2500 0.5550
v  1.8351 2.2500 0.4450
v  2.0000 2.2500 0.4450
v  2.0000 2.2500 0.5550
v  2.0000 2.0000 0.5550
v  1.7500 2.0000 0.5550
v  1.7500 2.0000 0.4450
v  2.0000 2.0000 0.4450
# 8 vertices

vn 0.0000 1.0000 -0.0000
vn -0.0000 0.0000 1.0000
vn -0.9467 0.3221 -0.0000
vn 0.0000 -0.0000 -1.0000
vn 0.0000 0.0000 -1.0000
vn 1.0000 0.0000 0.0000
# 6 vertex normals

vt 0.8438 0.0156 0.0000
vt 0.8438 0.0469 0.0000
vt 0.9063 0.0469 0.0000
vt 0.9063 0.0156 0.0000
vt 0.9063 0.1406 0.0000
vt 0.8281 0.1406 0.0000
vt 0.8438 0.0625 0.0000
vt 0.9063 0.0625 0.0000
vt 0.8125 0.0469 0.0000
vt 0.8125 0.1406 0.0000
vt 0.7656 0.1406 0.0000
vt 0.7656 0.0469 0.0000
vt 0.7656 0.0625 0.0000
vt 0.8125 0.0625 0.0000
# 14 texture coords

g Box018
usemtl tex
f 11/15/6 10/14/6 9/13/6 
f 9/13/6 12/16/6 11/15/6 
f 9/19/7 14/18/7 13/17/7 
f 13/17/7 12/20/7 9/19/7 
f 15/23/8 14/22/8 9/21/8 
f 9/21/8 10/24/8 15/23/8 
f 16/17/9 15/18/9 10/19/9 
f 10/19/9 11/20/10 16/17/9 
f 12/22/11 13/26/11 16/25/11 
f 16/25/11 11/23/11 12/22/11 
# 10 faces

#
# object Box019
#

v  -0.1649 2.2500 0.5550
v  -0.1649 2.2500 0.4450
v  0.1649 2.2500 0.4450
v  0.1649 2.2500 0.5550
v  0.2500 2.0000 0.5550
v  -0.2500 2.0000 0.5550
v  0.2500 2.0000 0.4450
v  -0.2500 2.0000 0.4450
# 8 vertices

vn 0.0000 1.0000 -0.0000
vn -0.0000 0.0000 1.0000
vn 0.9467 0.3221 0.0000
vn 0.0000 0.0000 -1.0000
vn -0.9467 0.3221 -0.0000
# 5 vertex normals

vt 0.8438 0.0156 0.0000
vt 0.8438 0.0469 0.0000
vt 0.9688 0.0469 0.0000
vt 0.9688 0.0156 0.0000
vt 0.8438 0.0625 0.0000
vt 0.9688 0.0625 0.0000
vt 0.9844 0.1406 0.0000
vt 0.8281 0.1406 0.0000
vt 0.8125 0.0469 0.0000
vt 0.7656 0.0469 0.0000
vt 0.7656 0.1406 0.0000
vt 0.8125 0.1406 0.0000
# 12 texture coords

g Box019
usemtl tex
f 19/29/12 18/28/12 17/27/12 
f 17/27/12 20/30/12 19/29/12 
f 21/33/13 20/32/13 17/31/13 
f 17/31/13 22/34/13 21/33/13 
f 23/37/14 19/36/14 20/35/14 
f 20/35/14 21/38/14 23/37/14 
f 24/34/15 18/31/15 19/32/15 
f 19/32/15 23/33/15 24/34/15 
f 22/38/16 17/35/16 18/36/16 
f 18/36/16 24/37/16 22/38/16 
# 10 faces

#
# object Box020
#

v  -0.8351 2.2500 0.5550
v  -0.8351 2.2500 0.4450
v  -1.0000 2.2500 0.4450
v  -1.0000 2.2500 0.5550
v  -1.0000 2.0000 0.5550
v  -0.7500 2.0000 0.5550
v  -0.7500 2.0000 0.4450
v  -1.0000 2.0000 0.4450
# 8 vertices

vn -0.0000 1.0000 0.0000
vn -0.0000 -0.0000 1.0000
vn 0.9467 0.3221 0.0000
vn 0.0000 0.0000 -1.0000
vn -1.0000 0.0000 -0.0000
# 5 vertex normals

vt 0.8438 0.0156 0.0000
vt 0.8438 0.0469 0.0000
vt 0.9063 0.0469 0.0000
vt 0.9063 0.0156 0.0000
vt 0.9063 0.1406 0.0000
vt 0.8281 0.1406 0.0000
vt 0.8438 0.0625 0.0000
vt 0.9063 0.0625 0.0000
vt 0.8125 0.0469 0.0000
vt 0.8125 0.1406 0.0000
vt 0.7656 0.1406 0.0000
vt 0.7656 0.0469 0.0000
vt 0.7656 0.0625 0.0000
vt 0.8125 0.0625 0.0000
# 14 texture coords

g Box020
usemtl tex
f 25/39/17 26/40/17 27/41/17 
f 27/41/17 28/42/17 25/39/17 
f 29/43/18 30/44/18 25/45/18 
f 25/45/18 28/46/18 29/43/18 
f 25/47/19 30/48/19 31/49/19 
f 31/49/19 26/50/19 25/47/19 
f 26/45/20 31/44/20 32/43/20 
f 32/43/20 27/46/20 26/45/20 
f 32/51/21 29/52/21 28/48/21 
f 28/48/21 27/49/21 32/51/21 
# 10 faces

