mtllib grenade40mm.mtl
#
# object Cylinder01
#
v  -0.1875 0.0000 -0.0000
v  -0.1875 -0.1250 -0.0000
v  -0.1875 0.0000 0.1250
v  -0.1875 0.0000 -0.1250
v  -0.1875 0.1250 -0.0000
v  0.1875 -0.1250 -0.0000
v  0.1875 0.0000 0.1250
v  0.1875 0.0000 -0.1250
v  0.1875 0.1250 -0.0000
v  0.3125 0.0000 -0.0000
# 10 vertices

vn -1.0000 0.0000 -0.0000
vn 0.0000 -0.7071 0.7071
vn 0.0000 -0.7071 -0.7071
vn 0.0000 0.7071 -0.7071
vn 0.0000 0.7071 0.7071
vn 0.5774 -0.5774 0.5774
vn 0.5774 -0.5774 -0.5774
vn 0.5774 0.5774 -0.5774
vn 0.5774 0.5774 0.5774
# 9 vertex normals

vt 0.8750 0.3750 0.0000
vt 0.7500 0.2500 0.0000
vt 1.0000 0.2500 0.0000
vt 0.7500 0.5000 0.0000
vt 1.0000 0.5000 0.0000
vt 0.2188 0.0000 0.0000
vt 0.2188 0.2500 0.0000
vt 0.7500 0.0000 0.0000
vt 0.2188 0.5000 0.0000
vt 0.0000 0.2500 0.0000
# 10 texture coords

g Cylinder01
usemtl tex
f 1/1/1 2/2/1 3/3/1 
f 1/1/1 4/4/1 2/2/1 
f 1/1/1 5/5/1 4/4/1 
f 1/1/1 3/3/1 5/5/1 
f 3/2/2 6/6/2 7/7/2 
f 3/2/2 2/8/2 6/6/2 
f 2/8/3 8/7/3 6/6/3 
f 2/8/3 4/2/3 8/7/3 
f 4/2/4 9/9/4 8/7/4 
f 4/2/4 5/4/4 9/9/4 
f 5/4/5 7/7/5 9/9/5 
f 5/4/5 3/2/5 7/7/5 
f 10/10/6 7/7/6 6/6/6 
f 10/10/7 6/6/7 8/7/7 
f 10/10/8 8/7/8 9/9/8 
f 10/10/9 9/9/9 7/7/9 
# 0 polygons - 16 triangles