mtllib helicopter.mtl
#
# object GUN
#
v  0.8756 0.0000 0.0625
v  0.8756 0.0000 -0.0625
v  1.1256 0.0000 -0.0625
v  1.1256 0.0000 0.0625
v  1.1256 0.1250 0.0625
v  0.8756 0.1250 0.0625
v  1.1256 0.1250 -0.0625
v  0.8756 0.1250 -0.0625
v  1.1256 0.0183 -0.0000
v  1.1256 0.0625 -0.0442
v  1.5006 0.0625 -0.0442
v  1.5006 0.0183 -0.0000
v  1.1256 0.0625 0.0442
v  1.5006 0.0625 0.0442
v  1.5006 0.1067 -0.0000
v  1.1256 0.1067 -0.0000
# 16 vertices

vn 0.0000 -1.0000 -0.0000
vn 0.0000 0.0000 1.0000
vn 1.0000 0.0000 -0.0000
vn 0.0000 0.0000 -1.0000
vn -1.0000 0.0000 -0.0000
vn 0.0000 -0.7071 -0.7071
vn 0.0000 0.7071 0.7071
vn 0.0000 -0.7071 0.7071
vn 0.0000 0.7071 -0.7071
# 9 vertex normals

vt 0.1864 0.0357 0.0000
vt 0.2212 0.0357 0.0000
vt 0.2212 0.1053 0.0000
vt 0.1864 0.1053 0.0000
vt 0.1867 0.1097 0.0000
vt 0.2215 0.1097 0.0000
vt 0.2215 0.1445 0.0000
vt 0.1867 0.1445 0.0000
vt 0.1803 0.1401 0.0000
vt 0.1609 0.1401 0.0000
vt 0.1609 0.0357 0.0000
vt 0.1803 0.0357 0.0000
vt 0.1447 0.0894 -0.0000
vt 0.1324 0.1017 -0.0000
vt 0.1447 0.1140 -0.0000
vt 0.1570 0.1017 -0.0000
# 16 texture coords

g GUN
usemtl tex
f 1/1/1 2/2/1 3/3/1 
f 3/3/1 4/4/1 1/1/1 
f 1/2/2 4/3/2 5/4/2 
f 5/4/2 6/1/2 1/2/2 
f 4/5/3 3/6/3 7/7/3 
f 7/7/3 5/8/3 4/5/3 
f 3/2/4 2/3/4 8/4/4 
f 8/4/4 7/1/4 3/2/4 
f 2/5/5 1/6/5 6/7/5 
f 6/7/5 8/8/5 2/5/5 
f 9/9/6 10/10/6 11/11/6 
f 11/11/6 12/12/6 9/9/6 
f 13/12/7 14/9/7 15/10/7 
f 15/10/7 16/11/7 13/12/7 
f 9/12/8 12/9/8 14/10/8 
f 14/10/8 13/11/8 9/12/8 
f 12/13/3 11/14/3 15/15/3 
f 15/15/3 14/16/3 12/13/3 
f 11/12/9 10/9/9 16/10/9 
f 16/10/9 15/11/9 11/12/9 
# 0 polygons - 20 triangles