mtllib helicopter.mtl
#
# object ROTOR
#
v  0.0943 1.0000 -2.3125
v  -0.0932 1.0000 -2.3125
v  0.0943 1.0000 -0.1250
v  -0.0932 1.0000 -0.1250
v  0.0006 0.8125 0.0884
v  -0.0878 0.8125 0.0000
v  0.0006 0.8125 -0.0884
v  0.0890 0.8125 0.0000
v  0.0006 1.0000 0.0884
v  0.0890 1.0000 0.0000
v  0.0006 1.0000 -0.0884
v  -0.0878 1.0000 0.0000
v  0.0006 1.0000 0.2652
v  -0.2646 1.0000 0.0000
v  0.0006 1.0000 -0.2652
v  0.2658 1.0000 0.0000
v  0.0006 1.1250 0.2652
v  0.2658 1.1250 0.0000
v  0.0006 1.1250 -0.2652
v  -0.2646 1.1250 0.0000
v  -0.0932 1.0000 2.3125
v  0.0943 1.0000 2.3125
v  -0.0932 1.0000 0.1250
v  0.0943 1.0000 0.1250
v  2.3131 1.0000 0.0938
v  2.3131 1.0000 -0.0938
v  0.1256 1.0000 0.0938
v  0.1256 1.0000 -0.0937
v  -2.3119 1.0000 -0.0938
v  -2.3119 1.0000 0.0937
v  -0.1244 1.0000 -0.0938
v  -0.1244 1.0000 0.0938
# 32 vertices

vn 0.0000 1.0000 -0.0000
vn 0.0000 -1.0000 -0.0000
vn 0.7071 0.0000 0.7071
vn 0.7071 0.0000 -0.7071
vn -0.7071 0.0000 -0.7071
vn -0.7071 0.0000 0.7071
# 6 vertex normals

vt 0.8995 0.8336 0.5000
vt 0.8995 0.8858 0.5000
vt 0.2904 0.8336 0.5000
vt 0.2904 0.8858 0.5000
vt 0.1134 0.7529 2.5000
vt 0.0888 0.7776 2.5000
vt 0.1134 0.8022 2.5000
vt 0.1380 0.7776 2.5000
vt 0.1134 0.7529 0.5000
vt 0.1380 0.7776 0.5000
vt 0.1134 0.8022 0.5000
vt 0.0888 0.7776 0.5000
vt 0.1380 0.7007 1.4142
vt 0.1135 0.7007 0.0000
vt 0.1135 0.7529 0.0000
vt 0.1380 0.7529 1.4142
vt 0.0889 0.7007 1.4142
vt 0.0889 0.7529 1.4142
vt 0.1380 0.7007 0.0000
vt 0.1134 0.7007 1.4142
vt 0.1134 0.7529 1.4142
vt 0.1380 0.7529 0.0000
vt 0.0888 0.7007 0.0000
vt 0.0888 0.7529 0.0000
vt 0.2495 0.6998 0.5000
vt 0.1451 0.6998 0.5000
vt 0.1451 0.8042 0.5000
vt 0.2495 0.8042 0.5000
vt 0.2495 0.6998 2.5000
vt 0.2495 0.8042 2.5000
vt 0.1451 0.8042 2.5000
vt 0.1451 0.6998 2.5000
vt 0.1019 0.6520 0.0000
vt 0.1757 0.6520 4.2426
vt 0.1757 0.6868 4.2426
vt 0.1019 0.6868 0.0000
vt 0.2495 0.6520 0.0000
vt 0.2495 0.6868 0.0000
vt 0.2495 0.6520 -0.0000
vt 0.2495 0.6868 -0.0000
# 40 texture coords

g ROTOR
usemtl tex
f 1/1/1 2/2/1 3/3/1 
f 4/4/1 3/3/1 2/2/1 
f 5/5/2 6/6/2 7/7/2 
f 7/7/2 8/8/2 5/5/2 
f 9/9/1 10/10/1 11/11/1 
f 11/11/1 12/12/1 9/9/1 
f 5/13/3 8/14/3 10/15/3 
f 10/15/3 9/16/3 5/13/3 
f 8/14/4 7/17/4 11/18/4 
f 11/18/4 10/15/4 8/14/4 
f 7/19/5 6/20/5 12/21/5 
f 12/21/5 11/22/5 7/19/5 
f 6/20/6 5/23/6 9/24/6 
f 9/24/6 12/21/6 6/20/6 
f 13/25/2 14/26/2 15/27/2 
f 15/27/2 16/28/2 13/25/2 
f 17/29/1 18/30/1 19/31/1 
f 19/31/1 20/32/1 17/29/1 
f 13/33/3 16/34/3 18/35/3 
f 18/35/3 17/36/3 13/33/3 
f 16/37/4 15/34/4 19/35/4 
f 19/35/4 18/38/4 16/37/4 
f 15/39/5 14/34/5 20/35/5 
f 20/35/5 19/40/5 15/39/5 
f 14/33/6 13/34/6 17/35/6 
f 17/35/6 20/36/6 14/33/6 
f 21/1/1 22/2/1 23/3/1 
f 24/4/1 23/3/1 22/2/1 
f 25/1/1 26/2/1 27/3/1 
f 28/4/1 27/3/1 26/2/1 
f 29/1/1 30/2/1 31/3/1 
f 32/4/1 31/3/1 30/2/1 
f 2/2/2 1/1/2 3/3/2 
f 3/3/2 4/4/2 2/2/2 
f 22/2/2 21/1/2 23/3/2 
f 23/3/2 24/4/2 22/2/2 
f 26/2/2 25/1/2 27/3/2 
f 27/3/2 28/4/2 26/2/2 
f 30/2/2 29/1/2 31/3/2 
f 31/3/2 32/4/2 30/2/2 
# 0 polygons - 40 triangles